<?xml version="1.0" encoding="UTF-8"?>
<svg width="800" height="800" version="1.1" viewBox="0 0 800 800" xmlns="http://www.w3.org/2000/svg">
 <g>
  <circle cx="400" cy="400" r="400" fill="#ffffff"/>
  <path d="M400 0C179.44 0 0 179.44 0 400s179.44 400 400 400 400-179.44 400-400S620.56 0 400 0zm0 50c193.3 0 350 156.7 350 350s-156.7 350-350 350S50 593.3 50 400 206.7 50 400 50z" fill="none"/>
  <path d="m400 100c-165.69 0-300 134.31-300 300s134.31 300 300 300 300-134.31 300-300-134.31-300-300-300zm0 50c138.07 0 250 111.93 250 250s-111.93 250-250 250-250-111.93-250-250 111.93-250 250-250z" fill="none"/>
  <path d="M400 200c-110.46 0-200 89.54-200 200s89.54 200 200 200 200-89.54 200-200-89.54-200-200-200zm0 50c82.843 0 150 67.157 150 150s-67.157 150-150 150-150-67.157-150-150 67.157-150 150-150z" fill="#00a0ff"/>
  <path d="M400 300c-55.228 0-100 44.772-100 100s44.772 100 100 100 100-44.772 100-100-44.772-100-100-100zm0 50c27.614 0 50 22.386 50 50s-22.386 50-50 50-50-22.386-50-50 22.386-50 50-50z" fill="#ffd700"/>
 </g>
</svg>
